<mxfile host="Electron" modified="2023-08-29T13:16:34.911Z" agent="Mozilla/5.0 (Windows NT 10.0; Win64; x64) AppleWebKit/537.36 (KHTML, like Gecko) draw.io/21.6.8 Chrome/114.0.5735.289 Electron/25.5.0 Safari/537.36" etag="V5X-an4mLzUaW82ypX0X" version="21.6.8" type="device">
  <diagram name="Strona-1" id="fa1Y3Vt_gMLhBlocg0XZ">
    <mxGraphModel dx="3137" dy="2823" grid="1" gridSize="10" guides="1" tooltips="1" connect="1" arrows="1" fold="1" page="1" pageScale="1" pageWidth="2339" pageHeight="3300" math="0" shadow="0">
      <root>
        <mxCell id="0" />
        <mxCell id="1" parent="0" />
        <mxCell id="xFXwR0wQ8rGsuL04AG6u-6" style="edgeStyle=orthogonalEdgeStyle;rounded=0;orthogonalLoop=1;jettySize=auto;html=1;exitX=0.5;exitY=0;exitDx=0;exitDy=0;entryX=0;entryY=0.5;entryDx=0;entryDy=0;" edge="1" parent="1" source="xFXwR0wQ8rGsuL04AG6u-1" target="xFXwR0wQ8rGsuL04AG6u-2">
          <mxGeometry relative="1" as="geometry" />
        </mxCell>
        <mxCell id="xFXwR0wQ8rGsuL04AG6u-7" style="edgeStyle=orthogonalEdgeStyle;rounded=0;orthogonalLoop=1;jettySize=auto;html=1;exitX=0.5;exitY=0;exitDx=0;exitDy=0;entryX=0;entryY=0.5;entryDx=0;entryDy=0;" edge="1" parent="1" source="xFXwR0wQ8rGsuL04AG6u-1" target="xFXwR0wQ8rGsuL04AG6u-3">
          <mxGeometry relative="1" as="geometry" />
        </mxCell>
        <mxCell id="xFXwR0wQ8rGsuL04AG6u-8" style="edgeStyle=orthogonalEdgeStyle;rounded=0;orthogonalLoop=1;jettySize=auto;html=1;exitX=0.5;exitY=1;exitDx=0;exitDy=0;entryX=0;entryY=0.5;entryDx=0;entryDy=0;" edge="1" parent="1" source="xFXwR0wQ8rGsuL04AG6u-1" target="xFXwR0wQ8rGsuL04AG6u-4">
          <mxGeometry relative="1" as="geometry" />
        </mxCell>
        <mxCell id="xFXwR0wQ8rGsuL04AG6u-9" style="edgeStyle=orthogonalEdgeStyle;rounded=0;orthogonalLoop=1;jettySize=auto;html=1;exitX=0.5;exitY=1;exitDx=0;exitDy=0;entryX=0;entryY=0.5;entryDx=0;entryDy=0;" edge="1" parent="1" source="xFXwR0wQ8rGsuL04AG6u-1" target="xFXwR0wQ8rGsuL04AG6u-5">
          <mxGeometry relative="1" as="geometry" />
        </mxCell>
        <mxCell id="xFXwR0wQ8rGsuL04AG6u-38" style="edgeStyle=orthogonalEdgeStyle;rounded=0;orthogonalLoop=1;jettySize=auto;html=1;exitX=0.5;exitY=1;exitDx=0;exitDy=0;entryX=0;entryY=0.5;entryDx=0;entryDy=0;" edge="1" parent="1" source="xFXwR0wQ8rGsuL04AG6u-1" target="xFXwR0wQ8rGsuL04AG6u-37">
          <mxGeometry relative="1" as="geometry" />
        </mxCell>
        <mxCell id="xFXwR0wQ8rGsuL04AG6u-76" style="edgeStyle=orthogonalEdgeStyle;rounded=0;orthogonalLoop=1;jettySize=auto;html=1;exitX=0.5;exitY=1;exitDx=0;exitDy=0;entryX=0;entryY=0.5;entryDx=0;entryDy=0;" edge="1" parent="1" source="xFXwR0wQ8rGsuL04AG6u-1" target="xFXwR0wQ8rGsuL04AG6u-74">
          <mxGeometry relative="1" as="geometry" />
        </mxCell>
        <mxCell id="xFXwR0wQ8rGsuL04AG6u-1" value="task" style="rounded=0;whiteSpace=wrap;html=1;fillColor=#1ba1e2;fontColor=#ffffff;strokeColor=#006EAF;" vertex="1" parent="1">
          <mxGeometry x="30" y="384" width="120" height="60" as="geometry" />
        </mxCell>
        <mxCell id="xFXwR0wQ8rGsuL04AG6u-11" style="edgeStyle=orthogonalEdgeStyle;rounded=0;orthogonalLoop=1;jettySize=auto;html=1;exitX=1;exitY=0.5;exitDx=0;exitDy=0;entryX=0;entryY=0.5;entryDx=0;entryDy=0;" edge="1" parent="1" source="xFXwR0wQ8rGsuL04AG6u-2" target="xFXwR0wQ8rGsuL04AG6u-10">
          <mxGeometry relative="1" as="geometry" />
        </mxCell>
        <mxCell id="xFXwR0wQ8rGsuL04AG6u-22" style="edgeStyle=orthogonalEdgeStyle;rounded=0;orthogonalLoop=1;jettySize=auto;html=1;exitX=1;exitY=0.5;exitDx=0;exitDy=0;entryX=0;entryY=0.5;entryDx=0;entryDy=0;" edge="1" parent="1" source="xFXwR0wQ8rGsuL04AG6u-2" target="xFXwR0wQ8rGsuL04AG6u-21">
          <mxGeometry relative="1" as="geometry" />
        </mxCell>
        <mxCell id="xFXwR0wQ8rGsuL04AG6u-2" value="-create" style="shape=process;whiteSpace=wrap;html=1;backgroundOutline=1;fillColor=#008a00;fontColor=#ffffff;strokeColor=#005700;" vertex="1" parent="1">
          <mxGeometry x="250" y="80" width="120" height="60" as="geometry" />
        </mxCell>
        <mxCell id="xFXwR0wQ8rGsuL04AG6u-13" style="edgeStyle=orthogonalEdgeStyle;rounded=0;orthogonalLoop=1;jettySize=auto;html=1;exitX=1;exitY=0.5;exitDx=0;exitDy=0;entryX=0;entryY=0.5;entryDx=0;entryDy=0;" edge="1" parent="1" source="xFXwR0wQ8rGsuL04AG6u-3" target="xFXwR0wQ8rGsuL04AG6u-12">
          <mxGeometry relative="1" as="geometry" />
        </mxCell>
        <mxCell id="xFXwR0wQ8rGsuL04AG6u-3" value="-link" style="shape=process;whiteSpace=wrap;html=1;backgroundOutline=1;fillColor=#008a00;fontColor=#ffffff;strokeColor=#005700;" vertex="1" parent="1">
          <mxGeometry x="250" y="270" width="120" height="60" as="geometry" />
        </mxCell>
        <mxCell id="xFXwR0wQ8rGsuL04AG6u-24" style="edgeStyle=orthogonalEdgeStyle;rounded=0;orthogonalLoop=1;jettySize=auto;html=1;exitX=1;exitY=0.5;exitDx=0;exitDy=0;entryX=0;entryY=0.5;entryDx=0;entryDy=0;" edge="1" parent="1" source="xFXwR0wQ8rGsuL04AG6u-4" target="xFXwR0wQ8rGsuL04AG6u-23">
          <mxGeometry relative="1" as="geometry" />
        </mxCell>
        <mxCell id="xFXwR0wQ8rGsuL04AG6u-4" value="-status" style="shape=process;whiteSpace=wrap;html=1;backgroundOutline=1;fillColor=#008a00;fontColor=#ffffff;strokeColor=#005700;" vertex="1" parent="1">
          <mxGeometry x="250" y="480" width="120" height="60" as="geometry" />
        </mxCell>
        <mxCell id="xFXwR0wQ8rGsuL04AG6u-34" style="edgeStyle=orthogonalEdgeStyle;rounded=0;orthogonalLoop=1;jettySize=auto;html=1;exitX=1;exitY=0.5;exitDx=0;exitDy=0;entryX=0;entryY=0.5;entryDx=0;entryDy=0;" edge="1" parent="1" source="xFXwR0wQ8rGsuL04AG6u-5" target="xFXwR0wQ8rGsuL04AG6u-33">
          <mxGeometry relative="1" as="geometry" />
        </mxCell>
        <mxCell id="xFXwR0wQ8rGsuL04AG6u-5" value="-remove" style="shape=process;whiteSpace=wrap;html=1;backgroundOutline=1;fillColor=#008a00;fontColor=#ffffff;strokeColor=#005700;" vertex="1" parent="1">
          <mxGeometry x="250" y="660" width="120" height="60" as="geometry" />
        </mxCell>
        <mxCell id="xFXwR0wQ8rGsuL04AG6u-10" value="-n name -d descyption" style="shape=process;whiteSpace=wrap;html=1;backgroundOutline=1;" vertex="1" parent="1">
          <mxGeometry x="430" y="20" width="480" height="60" as="geometry" />
        </mxCell>
        <mxCell id="xFXwR0wQ8rGsuL04AG6u-18" style="edgeStyle=orthogonalEdgeStyle;rounded=0;orthogonalLoop=1;jettySize=auto;html=1;exitX=1;exitY=0.5;exitDx=0;exitDy=0;entryX=0;entryY=0.5;entryDx=0;entryDy=0;" edge="1" parent="1" source="xFXwR0wQ8rGsuL04AG6u-12" target="xFXwR0wQ8rGsuL04AG6u-17">
          <mxGeometry relative="1" as="geometry" />
        </mxCell>
        <mxCell id="xFXwR0wQ8rGsuL04AG6u-12" value="-t task_name" style="shape=process;whiteSpace=wrap;html=1;backgroundOutline=1;" vertex="1" parent="1">
          <mxGeometry x="430" y="270" width="220" height="60" as="geometry" />
        </mxCell>
        <mxCell id="xFXwR0wQ8rGsuL04AG6u-14" value="board" style="shape=process;whiteSpace=wrap;html=1;backgroundOutline=1;" vertex="1" parent="1">
          <mxGeometry x="910" y="225" width="120" height="60" as="geometry" />
        </mxCell>
        <mxCell id="xFXwR0wQ8rGsuL04AG6u-15" value="project" style="shape=process;whiteSpace=wrap;html=1;backgroundOutline=1;" vertex="1" parent="1">
          <mxGeometry x="910" y="315" width="120" height="60" as="geometry" />
        </mxCell>
        <mxCell id="xFXwR0wQ8rGsuL04AG6u-19" style="edgeStyle=orthogonalEdgeStyle;rounded=0;orthogonalLoop=1;jettySize=auto;html=1;exitX=1;exitY=0.5;exitDx=0;exitDy=0;" edge="1" parent="1" source="xFXwR0wQ8rGsuL04AG6u-17" target="xFXwR0wQ8rGsuL04AG6u-14">
          <mxGeometry relative="1" as="geometry" />
        </mxCell>
        <mxCell id="xFXwR0wQ8rGsuL04AG6u-20" style="edgeStyle=orthogonalEdgeStyle;rounded=0;orthogonalLoop=1;jettySize=auto;html=1;exitX=1;exitY=0.5;exitDx=0;exitDy=0;entryX=0;entryY=0.5;entryDx=0;entryDy=0;" edge="1" parent="1" source="xFXwR0wQ8rGsuL04AG6u-17" target="xFXwR0wQ8rGsuL04AG6u-15">
          <mxGeometry relative="1" as="geometry" />
        </mxCell>
        <mxCell id="xFXwR0wQ8rGsuL04AG6u-17" value="-s" style="shape=process;whiteSpace=wrap;html=1;backgroundOutline=1;" vertex="1" parent="1">
          <mxGeometry x="690" y="270" width="120" height="60" as="geometry" />
        </mxCell>
        <mxCell id="xFXwR0wQ8rGsuL04AG6u-21" value="-n task_name" style="shape=process;whiteSpace=wrap;html=1;backgroundOutline=1;" vertex="1" parent="1">
          <mxGeometry x="430" y="120" width="480" height="60" as="geometry" />
        </mxCell>
        <mxCell id="xFXwR0wQ8rGsuL04AG6u-26" style="edgeStyle=orthogonalEdgeStyle;rounded=0;orthogonalLoop=1;jettySize=auto;html=1;exitX=1;exitY=0.5;exitDx=0;exitDy=0;entryX=0;entryY=0.5;entryDx=0;entryDy=0;" edge="1" parent="1" source="xFXwR0wQ8rGsuL04AG6u-23" target="xFXwR0wQ8rGsuL04AG6u-25">
          <mxGeometry relative="1" as="geometry" />
        </mxCell>
        <mxCell id="xFXwR0wQ8rGsuL04AG6u-23" value="-t task_name" style="shape=process;whiteSpace=wrap;html=1;backgroundOutline=1;" vertex="1" parent="1">
          <mxGeometry x="430" y="480" width="220" height="60" as="geometry" />
        </mxCell>
        <mxCell id="xFXwR0wQ8rGsuL04AG6u-30" style="edgeStyle=orthogonalEdgeStyle;rounded=0;orthogonalLoop=1;jettySize=auto;html=1;exitX=1;exitY=0.5;exitDx=0;exitDy=0;entryX=0;entryY=0.5;entryDx=0;entryDy=0;" edge="1" parent="1" source="xFXwR0wQ8rGsuL04AG6u-25" target="xFXwR0wQ8rGsuL04AG6u-27">
          <mxGeometry relative="1" as="geometry" />
        </mxCell>
        <mxCell id="xFXwR0wQ8rGsuL04AG6u-31" style="edgeStyle=orthogonalEdgeStyle;rounded=0;orthogonalLoop=1;jettySize=auto;html=1;exitX=1;exitY=0.5;exitDx=0;exitDy=0;entryX=0;entryY=0.5;entryDx=0;entryDy=0;" edge="1" parent="1" source="xFXwR0wQ8rGsuL04AG6u-25" target="xFXwR0wQ8rGsuL04AG6u-28">
          <mxGeometry relative="1" as="geometry" />
        </mxCell>
        <mxCell id="xFXwR0wQ8rGsuL04AG6u-32" style="edgeStyle=orthogonalEdgeStyle;rounded=0;orthogonalLoop=1;jettySize=auto;html=1;exitX=1;exitY=0.5;exitDx=0;exitDy=0;entryX=0;entryY=0.5;entryDx=0;entryDy=0;" edge="1" parent="1" source="xFXwR0wQ8rGsuL04AG6u-25" target="xFXwR0wQ8rGsuL04AG6u-29">
          <mxGeometry relative="1" as="geometry" />
        </mxCell>
        <mxCell id="xFXwR0wQ8rGsuL04AG6u-25" value="-st" style="shape=process;whiteSpace=wrap;html=1;backgroundOutline=1;" vertex="1" parent="1">
          <mxGeometry x="690" y="480" width="120" height="60" as="geometry" />
        </mxCell>
        <mxCell id="xFXwR0wQ8rGsuL04AG6u-27" value="new(1)" style="shape=process;whiteSpace=wrap;html=1;backgroundOutline=1;" vertex="1" parent="1">
          <mxGeometry x="910" y="410" width="120" height="60" as="geometry" />
        </mxCell>
        <mxCell id="xFXwR0wQ8rGsuL04AG6u-28" value="in progress(2)" style="shape=process;whiteSpace=wrap;html=1;backgroundOutline=1;" vertex="1" parent="1">
          <mxGeometry x="910" y="490" width="120" height="60" as="geometry" />
        </mxCell>
        <mxCell id="xFXwR0wQ8rGsuL04AG6u-29" value="done(3)" style="shape=process;whiteSpace=wrap;html=1;backgroundOutline=1;" vertex="1" parent="1">
          <mxGeometry x="910" y="570" width="120" height="60" as="geometry" />
        </mxCell>
        <mxCell id="xFXwR0wQ8rGsuL04AG6u-33" value="-t task_name" style="shape=process;whiteSpace=wrap;html=1;backgroundOutline=1;" vertex="1" parent="1">
          <mxGeometry x="430" y="660" width="220" height="60" as="geometry" />
        </mxCell>
        <mxCell id="xFXwR0wQ8rGsuL04AG6u-46" style="edgeStyle=orthogonalEdgeStyle;rounded=0;orthogonalLoop=1;jettySize=auto;html=1;exitX=0;exitY=0.5;exitDx=0;exitDy=0;entryX=1;entryY=0.5;entryDx=0;entryDy=0;" edge="1" parent="1" source="xFXwR0wQ8rGsuL04AG6u-35" target="xFXwR0wQ8rGsuL04AG6u-36">
          <mxGeometry relative="1" as="geometry" />
        </mxCell>
        <mxCell id="xFXwR0wQ8rGsuL04AG6u-47" style="edgeStyle=orthogonalEdgeStyle;rounded=0;orthogonalLoop=1;jettySize=auto;html=1;exitX=0;exitY=0.5;exitDx=0;exitDy=0;entryX=1;entryY=0.5;entryDx=0;entryDy=0;" edge="1" parent="1" source="xFXwR0wQ8rGsuL04AG6u-35" target="xFXwR0wQ8rGsuL04AG6u-39">
          <mxGeometry relative="1" as="geometry" />
        </mxCell>
        <mxCell id="xFXwR0wQ8rGsuL04AG6u-48" style="edgeStyle=orthogonalEdgeStyle;rounded=0;orthogonalLoop=1;jettySize=auto;html=1;exitX=0;exitY=0.5;exitDx=0;exitDy=0;entryX=1;entryY=0.5;entryDx=0;entryDy=0;" edge="1" parent="1" source="xFXwR0wQ8rGsuL04AG6u-35" target="xFXwR0wQ8rGsuL04AG6u-40">
          <mxGeometry relative="1" as="geometry" />
        </mxCell>
        <mxCell id="xFXwR0wQ8rGsuL04AG6u-51" style="edgeStyle=orthogonalEdgeStyle;rounded=0;orthogonalLoop=1;jettySize=auto;html=1;exitX=0;exitY=0.5;exitDx=0;exitDy=0;entryX=1;entryY=0.5;entryDx=0;entryDy=0;" edge="1" parent="1" source="xFXwR0wQ8rGsuL04AG6u-35" target="xFXwR0wQ8rGsuL04AG6u-49">
          <mxGeometry relative="1" as="geometry" />
        </mxCell>
        <mxCell id="xFXwR0wQ8rGsuL04AG6u-57" style="edgeStyle=orthogonalEdgeStyle;rounded=0;orthogonalLoop=1;jettySize=auto;html=1;exitX=0.5;exitY=0;exitDx=0;exitDy=0;entryX=0.5;entryY=1;entryDx=0;entryDy=0;" edge="1" parent="1" source="xFXwR0wQ8rGsuL04AG6u-35" target="xFXwR0wQ8rGsuL04AG6u-56">
          <mxGeometry relative="1" as="geometry" />
        </mxCell>
        <mxCell id="xFXwR0wQ8rGsuL04AG6u-61" style="edgeStyle=orthogonalEdgeStyle;rounded=0;orthogonalLoop=1;jettySize=auto;html=1;exitX=0.5;exitY=1;exitDx=0;exitDy=0;entryX=0.5;entryY=0;entryDx=0;entryDy=0;" edge="1" parent="1" source="xFXwR0wQ8rGsuL04AG6u-35" target="xFXwR0wQ8rGsuL04AG6u-60">
          <mxGeometry relative="1" as="geometry" />
        </mxCell>
        <mxCell id="xFXwR0wQ8rGsuL04AG6u-65" style="edgeStyle=orthogonalEdgeStyle;rounded=0;orthogonalLoop=1;jettySize=auto;html=1;exitX=1;exitY=0.5;exitDx=0;exitDy=0;entryX=0;entryY=0.5;entryDx=0;entryDy=0;" edge="1" parent="1" source="xFXwR0wQ8rGsuL04AG6u-35" target="xFXwR0wQ8rGsuL04AG6u-64">
          <mxGeometry relative="1" as="geometry" />
        </mxCell>
        <mxCell id="xFXwR0wQ8rGsuL04AG6u-80" style="edgeStyle=orthogonalEdgeStyle;rounded=0;orthogonalLoop=1;jettySize=auto;html=1;exitX=0;exitY=0.5;exitDx=0;exitDy=0;entryX=0.5;entryY=1;entryDx=0;entryDy=0;" edge="1" parent="1" source="xFXwR0wQ8rGsuL04AG6u-35" target="xFXwR0wQ8rGsuL04AG6u-78">
          <mxGeometry relative="1" as="geometry" />
        </mxCell>
        <mxCell id="xFXwR0wQ8rGsuL04AG6u-35" value="project" style="rounded=0;whiteSpace=wrap;html=1;fillColor=#1ba1e2;fontColor=#ffffff;strokeColor=#006EAF;" vertex="1" parent="1">
          <mxGeometry x="1160" y="1310" width="120" height="60" as="geometry" />
        </mxCell>
        <mxCell id="xFXwR0wQ8rGsuL04AG6u-43" style="edgeStyle=orthogonalEdgeStyle;rounded=0;orthogonalLoop=1;jettySize=auto;html=1;exitX=0;exitY=0.5;exitDx=0;exitDy=0;entryX=1;entryY=0.5;entryDx=0;entryDy=0;" edge="1" parent="1" source="xFXwR0wQ8rGsuL04AG6u-36" target="xFXwR0wQ8rGsuL04AG6u-42">
          <mxGeometry relative="1" as="geometry" />
        </mxCell>
        <mxCell id="xFXwR0wQ8rGsuL04AG6u-36" value="-create" style="shape=process;whiteSpace=wrap;html=1;backgroundOutline=1;fillColor=#008a00;fontColor=#ffffff;strokeColor=#005700;" vertex="1" parent="1">
          <mxGeometry x="940" y="1200" width="120" height="60" as="geometry" />
        </mxCell>
        <mxCell id="xFXwR0wQ8rGsuL04AG6u-92" style="edgeStyle=orthogonalEdgeStyle;rounded=0;orthogonalLoop=1;jettySize=auto;html=1;exitX=1;exitY=0.5;exitDx=0;exitDy=0;" edge="1" parent="1" source="xFXwR0wQ8rGsuL04AG6u-37">
          <mxGeometry relative="1" as="geometry">
            <mxPoint x="630" y="828" as="targetPoint" />
          </mxGeometry>
        </mxCell>
        <mxCell id="xFXwR0wQ8rGsuL04AG6u-37" value="-list" style="shape=process;whiteSpace=wrap;html=1;backgroundOutline=1;fillColor=#008a00;fontColor=#ffffff;strokeColor=#005700;" vertex="1" parent="1">
          <mxGeometry x="250" y="797" width="120" height="60" as="geometry" />
        </mxCell>
        <mxCell id="xFXwR0wQ8rGsuL04AG6u-45" style="edgeStyle=orthogonalEdgeStyle;rounded=0;orthogonalLoop=1;jettySize=auto;html=1;exitX=0;exitY=0.5;exitDx=0;exitDy=0;" edge="1" parent="1" source="xFXwR0wQ8rGsuL04AG6u-39" target="xFXwR0wQ8rGsuL04AG6u-42">
          <mxGeometry relative="1" as="geometry" />
        </mxCell>
        <mxCell id="xFXwR0wQ8rGsuL04AG6u-39" value="-remove" style="shape=process;whiteSpace=wrap;html=1;backgroundOutline=1;fillColor=#008a00;fontColor=#ffffff;strokeColor=#005700;" vertex="1" parent="1">
          <mxGeometry x="940" y="1310" width="120" height="60" as="geometry" />
        </mxCell>
        <mxCell id="xFXwR0wQ8rGsuL04AG6u-40" value="-list" style="shape=process;whiteSpace=wrap;html=1;backgroundOutline=1;fillColor=#008a00;fontColor=#ffffff;strokeColor=#005700;" vertex="1" parent="1">
          <mxGeometry x="940" y="1420" width="120" height="60" as="geometry" />
        </mxCell>
        <mxCell id="xFXwR0wQ8rGsuL04AG6u-42" value="-n project_name" style="shape=process;whiteSpace=wrap;html=1;backgroundOutline=1;" vertex="1" parent="1">
          <mxGeometry x="370" y="1200" width="480" height="60" as="geometry" />
        </mxCell>
        <mxCell id="xFXwR0wQ8rGsuL04AG6u-50" style="edgeStyle=orthogonalEdgeStyle;rounded=0;orthogonalLoop=1;jettySize=auto;html=1;exitX=0;exitY=0.5;exitDx=0;exitDy=0;" edge="1" parent="1" source="xFXwR0wQ8rGsuL04AG6u-49">
          <mxGeometry relative="1" as="geometry">
            <mxPoint x="690" y="1560.4285714285716" as="targetPoint" />
          </mxGeometry>
        </mxCell>
        <mxCell id="xFXwR0wQ8rGsuL04AG6u-53" style="edgeStyle=orthogonalEdgeStyle;rounded=0;orthogonalLoop=1;jettySize=auto;html=1;exitX=0.5;exitY=1;exitDx=0;exitDy=0;entryX=1;entryY=0.5;entryDx=0;entryDy=0;" edge="1" parent="1" source="xFXwR0wQ8rGsuL04AG6u-49" target="xFXwR0wQ8rGsuL04AG6u-52">
          <mxGeometry relative="1" as="geometry" />
        </mxCell>
        <mxCell id="xFXwR0wQ8rGsuL04AG6u-55" style="edgeStyle=orthogonalEdgeStyle;rounded=0;orthogonalLoop=1;jettySize=auto;html=1;exitX=0.5;exitY=1;exitDx=0;exitDy=0;entryX=1;entryY=0.5;entryDx=0;entryDy=0;" edge="1" parent="1" source="xFXwR0wQ8rGsuL04AG6u-49" target="xFXwR0wQ8rGsuL04AG6u-54">
          <mxGeometry relative="1" as="geometry" />
        </mxCell>
        <mxCell id="xFXwR0wQ8rGsuL04AG6u-49" value="-members" style="shape=process;whiteSpace=wrap;html=1;backgroundOutline=1;fillColor=#008a00;fontColor=#ffffff;strokeColor=#005700;" vertex="1" parent="1">
          <mxGeometry x="940" y="1530" width="120" height="60" as="geometry" />
        </mxCell>
        <mxCell id="xFXwR0wQ8rGsuL04AG6u-52" value="-a member_mail" style="shape=process;whiteSpace=wrap;html=1;backgroundOutline=1;" vertex="1" parent="1">
          <mxGeometry x="700" y="1660" width="220" height="60" as="geometry" />
        </mxCell>
        <mxCell id="xFXwR0wQ8rGsuL04AG6u-54" value="-r member_mail" style="shape=process;whiteSpace=wrap;html=1;backgroundOutline=1;" vertex="1" parent="1">
          <mxGeometry x="700" y="1770" width="220" height="60" as="geometry" />
        </mxCell>
        <mxCell id="xFXwR0wQ8rGsuL04AG6u-59" style="edgeStyle=orthogonalEdgeStyle;rounded=0;orthogonalLoop=1;jettySize=auto;html=1;exitX=1;exitY=0.5;exitDx=0;exitDy=0;entryX=0;entryY=0.5;entryDx=0;entryDy=0;" edge="1" parent="1" source="xFXwR0wQ8rGsuL04AG6u-56" target="xFXwR0wQ8rGsuL04AG6u-58">
          <mxGeometry relative="1" as="geometry" />
        </mxCell>
        <mxCell id="xFXwR0wQ8rGsuL04AG6u-56" value="-listtask" style="shape=process;whiteSpace=wrap;html=1;backgroundOutline=1;fillColor=#008a00;fontColor=#ffffff;strokeColor=#005700;" vertex="1" parent="1">
          <mxGeometry x="1160" y="1180" width="120" height="60" as="geometry" />
        </mxCell>
        <mxCell id="xFXwR0wQ8rGsuL04AG6u-58" value="-n project_name" style="shape=process;whiteSpace=wrap;html=1;backgroundOutline=1;" vertex="1" parent="1">
          <mxGeometry x="1340" y="1180" width="480" height="60" as="geometry" />
        </mxCell>
        <mxCell id="xFXwR0wQ8rGsuL04AG6u-63" style="edgeStyle=orthogonalEdgeStyle;rounded=0;orthogonalLoop=1;jettySize=auto;html=1;exitX=1;exitY=0.5;exitDx=0;exitDy=0;" edge="1" parent="1" source="xFXwR0wQ8rGsuL04AG6u-60" target="xFXwR0wQ8rGsuL04AG6u-62">
          <mxGeometry relative="1" as="geometry" />
        </mxCell>
        <mxCell id="xFXwR0wQ8rGsuL04AG6u-60" value="-addtask" style="shape=process;whiteSpace=wrap;html=1;backgroundOutline=1;fillColor=#008a00;fontColor=#ffffff;strokeColor=#005700;" vertex="1" parent="1">
          <mxGeometry x="1160" y="1420" width="120" height="60" as="geometry" />
        </mxCell>
        <mxCell id="xFXwR0wQ8rGsuL04AG6u-62" value="-n task_name" style="shape=process;whiteSpace=wrap;html=1;backgroundOutline=1;" vertex="1" parent="1">
          <mxGeometry x="1338" y="1420" width="480" height="60" as="geometry" />
        </mxCell>
        <mxCell id="xFXwR0wQ8rGsuL04AG6u-66" style="edgeStyle=orthogonalEdgeStyle;rounded=0;orthogonalLoop=1;jettySize=auto;html=1;exitX=1;exitY=0.5;exitDx=0;exitDy=0;entryX=0.5;entryY=0;entryDx=0;entryDy=0;" edge="1" parent="1" source="xFXwR0wQ8rGsuL04AG6u-64" target="xFXwR0wQ8rGsuL04AG6u-62">
          <mxGeometry relative="1" as="geometry" />
        </mxCell>
        <mxCell id="xFXwR0wQ8rGsuL04AG6u-64" value="-rmtask" style="shape=process;whiteSpace=wrap;html=1;backgroundOutline=1;fillColor=#008a00;fontColor=#ffffff;strokeColor=#005700;" vertex="1" parent="1">
          <mxGeometry x="1350" y="1310" width="120" height="60" as="geometry" />
        </mxCell>
        <mxCell id="xFXwR0wQ8rGsuL04AG6u-83" style="edgeStyle=orthogonalEdgeStyle;rounded=0;orthogonalLoop=1;jettySize=auto;html=1;exitX=1;exitY=0.5;exitDx=0;exitDy=0;entryX=0;entryY=0.5;entryDx=0;entryDy=0;" edge="1" parent="1" source="xFXwR0wQ8rGsuL04AG6u-67" target="xFXwR0wQ8rGsuL04AG6u-68">
          <mxGeometry relative="1" as="geometry" />
        </mxCell>
        <mxCell id="xFXwR0wQ8rGsuL04AG6u-84" style="edgeStyle=orthogonalEdgeStyle;rounded=0;orthogonalLoop=1;jettySize=auto;html=1;exitX=1;exitY=0.5;exitDx=0;exitDy=0;entryX=0;entryY=0.5;entryDx=0;entryDy=0;" edge="1" parent="1" source="xFXwR0wQ8rGsuL04AG6u-67" target="xFXwR0wQ8rGsuL04AG6u-69">
          <mxGeometry relative="1" as="geometry" />
        </mxCell>
        <mxCell id="xFXwR0wQ8rGsuL04AG6u-85" style="edgeStyle=orthogonalEdgeStyle;rounded=0;orthogonalLoop=1;jettySize=auto;html=1;exitX=1;exitY=0.5;exitDx=0;exitDy=0;entryX=0;entryY=0.5;entryDx=0;entryDy=0;" edge="1" parent="1" source="xFXwR0wQ8rGsuL04AG6u-67" target="xFXwR0wQ8rGsuL04AG6u-70">
          <mxGeometry relative="1" as="geometry" />
        </mxCell>
        <mxCell id="xFXwR0wQ8rGsuL04AG6u-86" style="edgeStyle=orthogonalEdgeStyle;rounded=0;orthogonalLoop=1;jettySize=auto;html=1;exitX=1;exitY=0.5;exitDx=0;exitDy=0;entryX=0;entryY=0.5;entryDx=0;entryDy=0;" edge="1" parent="1" source="xFXwR0wQ8rGsuL04AG6u-67" target="xFXwR0wQ8rGsuL04AG6u-72">
          <mxGeometry relative="1" as="geometry" />
        </mxCell>
        <mxCell id="xFXwR0wQ8rGsuL04AG6u-87" style="edgeStyle=orthogonalEdgeStyle;rounded=0;orthogonalLoop=1;jettySize=auto;html=1;exitX=1;exitY=0.5;exitDx=0;exitDy=0;entryX=0;entryY=0.5;entryDx=0;entryDy=0;" edge="1" parent="1" source="xFXwR0wQ8rGsuL04AG6u-67" target="xFXwR0wQ8rGsuL04AG6u-82">
          <mxGeometry relative="1" as="geometry" />
        </mxCell>
        <mxCell id="xFXwR0wQ8rGsuL04AG6u-96" style="edgeStyle=orthogonalEdgeStyle;rounded=0;orthogonalLoop=1;jettySize=auto;html=1;exitX=1;exitY=0.5;exitDx=0;exitDy=0;entryX=0.25;entryY=0;entryDx=0;entryDy=0;" edge="1" parent="1" source="xFXwR0wQ8rGsuL04AG6u-67" target="xFXwR0wQ8rGsuL04AG6u-94">
          <mxGeometry relative="1" as="geometry" />
        </mxCell>
        <mxCell id="xFXwR0wQ8rGsuL04AG6u-101" style="edgeStyle=orthogonalEdgeStyle;rounded=0;orthogonalLoop=1;jettySize=auto;html=1;exitX=1;exitY=0.5;exitDx=0;exitDy=0;entryX=0.5;entryY=0;entryDx=0;entryDy=0;" edge="1" parent="1" source="xFXwR0wQ8rGsuL04AG6u-67" target="xFXwR0wQ8rGsuL04AG6u-100">
          <mxGeometry relative="1" as="geometry" />
        </mxCell>
        <mxCell id="xFXwR0wQ8rGsuL04AG6u-67" value="board" style="rounded=0;whiteSpace=wrap;html=1;fillColor=#1ba1e2;fontColor=#ffffff;strokeColor=#006EAF;" vertex="1" parent="1">
          <mxGeometry x="1120" y="400" width="120" height="60" as="geometry" />
        </mxCell>
        <mxCell id="xFXwR0wQ8rGsuL04AG6u-89" style="edgeStyle=orthogonalEdgeStyle;rounded=0;orthogonalLoop=1;jettySize=auto;html=1;exitX=1;exitY=0.5;exitDx=0;exitDy=0;entryX=0;entryY=0.5;entryDx=0;entryDy=0;" edge="1" parent="1" source="xFXwR0wQ8rGsuL04AG6u-68" target="xFXwR0wQ8rGsuL04AG6u-88">
          <mxGeometry relative="1" as="geometry" />
        </mxCell>
        <mxCell id="xFXwR0wQ8rGsuL04AG6u-68" value="-create" style="shape=process;whiteSpace=wrap;html=1;backgroundOutline=1;fillColor=#008a00;fontColor=#ffffff;strokeColor=#005700;" vertex="1" parent="1">
          <mxGeometry x="1400" y="110" width="120" height="60" as="geometry" />
        </mxCell>
        <mxCell id="xFXwR0wQ8rGsuL04AG6u-90" style="edgeStyle=orthogonalEdgeStyle;rounded=0;orthogonalLoop=1;jettySize=auto;html=1;exitX=1;exitY=0.5;exitDx=0;exitDy=0;entryX=0.5;entryY=1;entryDx=0;entryDy=0;" edge="1" parent="1" source="xFXwR0wQ8rGsuL04AG6u-69" target="xFXwR0wQ8rGsuL04AG6u-88">
          <mxGeometry relative="1" as="geometry" />
        </mxCell>
        <mxCell id="xFXwR0wQ8rGsuL04AG6u-69" value="-remove" style="shape=process;whiteSpace=wrap;html=1;backgroundOutline=1;fillColor=#008a00;fontColor=#ffffff;strokeColor=#005700;" vertex="1" parent="1">
          <mxGeometry x="1400" y="260" width="120" height="60" as="geometry" />
        </mxCell>
        <mxCell id="xFXwR0wQ8rGsuL04AG6u-91" style="edgeStyle=orthogonalEdgeStyle;rounded=0;orthogonalLoop=1;jettySize=auto;html=1;exitX=1;exitY=0.5;exitDx=0;exitDy=0;" edge="1" parent="1" source="xFXwR0wQ8rGsuL04AG6u-70">
          <mxGeometry relative="1" as="geometry">
            <mxPoint x="1730" y="430" as="targetPoint" />
          </mxGeometry>
        </mxCell>
        <mxCell id="xFXwR0wQ8rGsuL04AG6u-70" value="-list" style="shape=process;whiteSpace=wrap;html=1;backgroundOutline=1;fillColor=#008a00;fontColor=#ffffff;strokeColor=#005700;" vertex="1" parent="1">
          <mxGeometry x="1400" y="400" width="120" height="60" as="geometry" />
        </mxCell>
        <mxCell id="xFXwR0wQ8rGsuL04AG6u-93" style="edgeStyle=orthogonalEdgeStyle;rounded=0;orthogonalLoop=1;jettySize=auto;html=1;exitX=1;exitY=0.5;exitDx=0;exitDy=0;entryX=0.75;entryY=1;entryDx=0;entryDy=0;" edge="1" parent="1" source="xFXwR0wQ8rGsuL04AG6u-72" target="xFXwR0wQ8rGsuL04AG6u-88">
          <mxGeometry relative="1" as="geometry" />
        </mxCell>
        <mxCell id="xFXwR0wQ8rGsuL04AG6u-72" value="-listtask" style="shape=process;whiteSpace=wrap;html=1;backgroundOutline=1;fillColor=#008a00;fontColor=#ffffff;strokeColor=#005700;" vertex="1" parent="1">
          <mxGeometry x="1400" y="540" width="120" height="60" as="geometry" />
        </mxCell>
        <mxCell id="xFXwR0wQ8rGsuL04AG6u-77" style="edgeStyle=orthogonalEdgeStyle;rounded=0;orthogonalLoop=1;jettySize=auto;html=1;exitX=1;exitY=0.5;exitDx=0;exitDy=0;entryX=0;entryY=0.5;entryDx=0;entryDy=0;" edge="1" parent="1" source="xFXwR0wQ8rGsuL04AG6u-74" target="xFXwR0wQ8rGsuL04AG6u-75">
          <mxGeometry relative="1" as="geometry" />
        </mxCell>
        <mxCell id="xFXwR0wQ8rGsuL04AG6u-74" value="-history" style="shape=process;whiteSpace=wrap;html=1;backgroundOutline=1;fillColor=#008a00;fontColor=#ffffff;strokeColor=#005700;" vertex="1" parent="1">
          <mxGeometry x="250" y="910" width="120" height="60" as="geometry" />
        </mxCell>
        <mxCell id="xFXwR0wQ8rGsuL04AG6u-75" value="-t task_name" style="shape=process;whiteSpace=wrap;html=1;backgroundOutline=1;" vertex="1" parent="1">
          <mxGeometry x="430" y="910" width="220" height="60" as="geometry" />
        </mxCell>
        <mxCell id="xFXwR0wQ8rGsuL04AG6u-81" style="edgeStyle=orthogonalEdgeStyle;rounded=0;orthogonalLoop=1;jettySize=auto;html=1;exitX=1;exitY=0.5;exitDx=0;exitDy=0;entryX=0.5;entryY=0;entryDx=0;entryDy=0;" edge="1" parent="1" source="xFXwR0wQ8rGsuL04AG6u-78" target="xFXwR0wQ8rGsuL04AG6u-58">
          <mxGeometry relative="1" as="geometry" />
        </mxCell>
        <mxCell id="xFXwR0wQ8rGsuL04AG6u-78" value="-history" style="shape=process;whiteSpace=wrap;html=1;backgroundOutline=1;fillColor=#008a00;fontColor=#ffffff;strokeColor=#005700;" vertex="1" parent="1">
          <mxGeometry x="1040" y="1060" width="120" height="60" as="geometry" />
        </mxCell>
        <mxCell id="xFXwR0wQ8rGsuL04AG6u-104" style="edgeStyle=orthogonalEdgeStyle;rounded=0;orthogonalLoop=1;jettySize=auto;html=1;exitX=1;exitY=0.5;exitDx=0;exitDy=0;" edge="1" parent="1" source="xFXwR0wQ8rGsuL04AG6u-82" target="xFXwR0wQ8rGsuL04AG6u-88">
          <mxGeometry relative="1" as="geometry" />
        </mxCell>
        <mxCell id="xFXwR0wQ8rGsuL04AG6u-82" value="-history" style="shape=process;whiteSpace=wrap;html=1;backgroundOutline=1;fillColor=#008a00;fontColor=#ffffff;strokeColor=#005700;" vertex="1" parent="1">
          <mxGeometry x="1400" y="690" width="120" height="60" as="geometry" />
        </mxCell>
        <mxCell id="xFXwR0wQ8rGsuL04AG6u-88" value="-n name -d descyption" style="shape=process;whiteSpace=wrap;html=1;backgroundOutline=1;" vertex="1" parent="1">
          <mxGeometry x="1590" y="110" width="480" height="60" as="geometry" />
        </mxCell>
        <mxCell id="xFXwR0wQ8rGsuL04AG6u-99" style="edgeStyle=orthogonalEdgeStyle;rounded=0;orthogonalLoop=1;jettySize=auto;html=1;exitX=1;exitY=0.5;exitDx=0;exitDy=0;entryX=0.5;entryY=0;entryDx=0;entryDy=0;" edge="1" parent="1" source="xFXwR0wQ8rGsuL04AG6u-94" target="xFXwR0wQ8rGsuL04AG6u-97">
          <mxGeometry relative="1" as="geometry" />
        </mxCell>
        <mxCell id="xFXwR0wQ8rGsuL04AG6u-94" value="-addtask" style="shape=process;whiteSpace=wrap;html=1;backgroundOutline=1;fillColor=#008a00;fontColor=#ffffff;strokeColor=#005700;" vertex="1" parent="1">
          <mxGeometry x="1280" y="800" width="120" height="60" as="geometry" />
        </mxCell>
        <mxCell id="xFXwR0wQ8rGsuL04AG6u-97" value="-n task_name" style="shape=process;whiteSpace=wrap;html=1;backgroundOutline=1;" vertex="1" parent="1">
          <mxGeometry x="1480" y="860" width="480" height="60" as="geometry" />
        </mxCell>
        <mxCell id="xFXwR0wQ8rGsuL04AG6u-102" style="edgeStyle=orthogonalEdgeStyle;rounded=0;orthogonalLoop=1;jettySize=auto;html=1;exitX=1;exitY=0.5;exitDx=0;exitDy=0;entryX=0;entryY=0.5;entryDx=0;entryDy=0;" edge="1" parent="1" source="xFXwR0wQ8rGsuL04AG6u-100" target="xFXwR0wQ8rGsuL04AG6u-97">
          <mxGeometry relative="1" as="geometry" />
        </mxCell>
        <mxCell id="xFXwR0wQ8rGsuL04AG6u-100" value="-rmtask" style="shape=process;whiteSpace=wrap;html=1;backgroundOutline=1;fillColor=#008a00;fontColor=#ffffff;strokeColor=#005700;" vertex="1" parent="1">
          <mxGeometry x="1200" y="890" width="120" height="60" as="geometry" />
        </mxCell>
      </root>
    </mxGraphModel>
  </diagram>
</mxfile>
